<svg width="428" height="351" viewBox="0 0 428 351" fill="none" xmlns="http://www.w3.org/2000/svg">
<path d="M88 259.508C96.2843 259.508 103 252.792 103 244.508C103 236.224 96.2843 229.508 88 229.508C79.7157 229.508 73 236.224 73 244.508C73 252.792 79.7157 259.508 88 259.508Z" fill="#F4BA40"/>
<path d="M85.033 230.087C91.933 230.087 97.148 236.699 97.672 244.021C98.196 251.343 94.033 259.373 87.129 259.373C83.5495 259.24 80.1383 257.819 77.5219 255.373C74.9056 252.926 73.2599 249.618 72.887 246.055C72.363 238.734 78.13 230.087 85.033 230.087Z" fill="#FFCD64"/>
</svg>
