<svg width="200" height="200" viewBox="0 0 200 200" fill="none" xmlns="http://www.w3.org/2000/svg">
<rect width="200" height="200" rx="100" fill="#16A9B1"/>
<path d="M127.473 69.4C129.294 70.4203 130.636 72.1225 131.204 74.1322C131.771 76.1419 131.516 78.2945 130.497 80.1167L104.599 126.363C103.943 127.535 103.033 128.545 101.937 129.319C100.84 130.094 99.5835 130.613 98.2599 130.839C96.9364 131.065 95.5791 130.991 94.2874 130.625C92.9958 130.258 91.8026 129.607 90.7953 128.719L71.1685 111.43C69.6015 110.049 68.6472 108.102 68.5156 106.018C68.3839 103.933 69.0857 101.882 70.4665 100.315C71.8474 98.748 73.7942 97.7936 75.8787 97.662C77.9631 97.5303 80.0145 98.2321 81.5815 99.613L94.9375 111.38L116.754 72.424C117.259 71.5216 117.937 70.7275 118.749 70.0872C119.561 69.4468 120.491 68.9727 121.487 68.6919C122.482 68.4111 123.523 68.3291 124.55 68.4506C125.577 68.5721 126.57 68.8947 127.473 69.4V69.4Z" fill="#171717"/>
</svg>
